<?xml version="1.0" encoding="utf-8"?>
<!-- Generator: Adobe Illustrator 15.0.0, SVG Export Plug-In  -->
<!DOCTYPE svg PUBLIC "-//W3C//DTD SVG 1.1//EN" "http://www.w3.org/Graphics/SVG/1.1/DTD/svg11.dtd" [
	<!ENTITY ns_flows "http://ns.adobe.com/Flows/1.0/">
]>
<svg version="1.1"
	 xmlns="http://www.w3.org/2000/svg" xmlns:xlink="http://www.w3.org/1999/xlink" xmlns:a="http://ns.adobe.com/AdobeSVGViewerExtensions/3.0/"
	 x="0px" y="0px" width="196px" height="196px" viewBox="-37.258 -23.763 196 196" enable-background="new -37.258 -23.763 196 196"
	 xml:space="preserve">
<defs>
</defs>
<rect x="42.23" y="94.333" fill-rule="evenodd" clip-rule="evenodd" fill="#E5B683" width="37.307" height="67.204"/>
<path fill-rule="evenodd" clip-rule="evenodd" fill="#D69229" d="M96.322,13.28c13.195,9.979,21.658,25.403,21.658,42.715
	c0,30.086-25.563,54.475-57.097,54.475c-31.533,0-57.096-24.389-57.096-54.475c0-19.392,9.888-42.267,26.612-44.607
	C43.774-6.728,77.357-1.062,96.322,13.28z"/>
<path fill-rule="evenodd" clip-rule="evenodd" fill="#FAD3A8" d="M62.795,24.301c25.189,0,42.742,17.486,39.586,50.222
	c-0.898,9.319,8.164,4.398,8.164,7.765c0,2.205,2.086,0.549,1.803,2.678c-3.289,24.727-25.076,43.83-51.464,43.83
	c-26.38,0-48.163-19.093-51.461-43.81c-0.285-2.136,4.672-3.038,4.672-5.25c6.118,8.899,5.074,1.1,4.545-4.086
	C13.825,28.566,36.393,24.301,62.795,24.301z"/>
<path fill-rule="evenodd" clip-rule="evenodd" fill="#E18C66" d="M83.834,95.056c-12.389,12.815-33.512,12.815-45.9,0H83.834z"/>
<path fill-rule="evenodd" clip-rule="evenodd" fill="#EDA17D" d="M74.625,101.63c-8.643,4.05-18.839,4.05-27.483,0
	C55.39,94.628,66.377,94.627,74.625,101.63z"/>
<ellipse fill-rule="evenodd" clip-rule="evenodd" fill="#333333" cx="43.305" cy="65.482" rx="4.466" ry="7.514"/>
<circle fill-rule="evenodd" clip-rule="evenodd" fill="#FFFFFF" cx="43.957" cy="61.729" r="2.628"/>
<ellipse fill-rule="evenodd" clip-rule="evenodd" fill="#333333" cx="78.463" cy="65.482" rx="4.467" ry="7.514"/>
<circle fill-rule="evenodd" clip-rule="evenodd" fill="#FFFFFF" cx="79.115" cy="61.729" r="2.628"/>
<path fill-rule="evenodd" clip-rule="evenodd" fill="#D69229" d="M83.676,20.994c22.164,14.598,26.451,39.193,25.158,46.734
	c-1.295,7.54-20.309,1.819-42.473-12.778c-22.163-14.598-39.08-32.545-37.787-40.086C29.869,7.324,61.514,6.395,83.676,20.994z"/>
<path fill-rule="evenodd" clip-rule="evenodd" fill="#FAD3A8" d="M2.229,61.33c2.869-1.23,7.405,3.628,10.132,10.851
	s2.612,14.074-0.257,15.304S4.699,83.855,1.972,76.633C-0.754,69.411-0.64,62.558,2.229,61.33z"/>
<ellipse transform="matrix(0.3134 -0.9496 0.9496 0.3134 7.974 159.8427)" fill-rule="evenodd" clip-rule="evenodd" fill="#FAD3A8" cx="114.529" cy="74.407" rx="13.771" ry="7.102"/>
<path fill-rule="evenodd" clip-rule="evenodd" fill="#FFFFFF" d="M70.971,95.056c-0.561,6.089-19.995,5.47-20.174,0H70.971z"/>
<path fill-rule="evenodd" clip-rule="evenodd" fill="#7A91BF" d="M116.686,155.116c-9.654-7.865-27.584-14.034-37.041-17.592
	c-1.752,6.623-9.484,11.614-18.76,11.614c-9.276,0-17.01-4.991-18.762-11.614c-9.455,3.558-27.387,9.727-37.04,17.592
	c15.844,10.972,35.07,17.405,55.802,17.405C81.615,172.521,100.842,166.087,116.686,155.116z"/>
<path fill="#C69C6D" d="M66.854,85.324c1.498-1.032,3.736-0.035,2.238,0.998c-4.537,3.133-11.884,3.134-16.421,0
	c-1.499-1.034,0.521-1.845,2.237-0.998C58.313,87.005,63.709,86.939,66.854,85.324z"/>
<path fill="#D69229" d="M32.393,49.764c-1.866,2.208-4.774,1.213-2.909-0.99c4.667-5.512,14.363-8.176,21.011-5.793
	c2.703,0.97,0.28,4.492-2.414,3.526C43.5,44.866,35.624,45.956,32.393,49.764z"/>
<path fill="#D69229" d="M89.375,49.765c1.865,2.207,4.773,1.213,2.908-0.991c-4.666-5.512-14.363-8.176-21.012-5.793
	c-2.701,0.97-0.279,4.492,2.416,3.526C78.268,44.866,86.143,45.956,89.375,49.765z"/>
<path fill="#D69229" d="M61.353,111.684c3.456,0,4.836,8.881,8.606,11.083c9.566,5.588,14.75-18.447,14.926-23.933
	c0.115-3.548,1.832-3.448,2.027-0.33c0.65,10.396,7.064,34.61-25.559,34.61c-32.625,0-26.211-24.214-25.561-34.61
	c0.195-3.118,1.913-3.218,2.027,0.33c0.176,5.485,5.359,29.521,14.927,23.933C56.516,120.565,57.897,111.684,61.353,111.684z"/>
</svg>
