<?xml version="1.0" encoding="utf-8"?>
<!-- Generator: Adobe Illustrator 15.0.0, SVG Export Plug-In  -->
<!DOCTYPE svg PUBLIC "-//W3C//DTD SVG 1.1//EN" "http://www.w3.org/Graphics/SVG/1.1/DTD/svg11.dtd" [
	<!ENTITY ns_flows "http://ns.adobe.com/Flows/1.0/">
]>
<svg version="1.1"
	 xmlns="http://www.w3.org/2000/svg" xmlns:xlink="http://www.w3.org/1999/xlink" xmlns:a="http://ns.adobe.com/AdobeSVGViewerExtensions/3.0/"
	 x="0px" y="0px" width="196px" height="196px" viewBox="-37.258 -24.852 196 196" enable-background="new -37.258 -24.852 196 196"
	 xml:space="preserve">
<defs>
</defs>
<rect x="42.23" y="93.245" fill-rule="evenodd" clip-rule="evenodd" fill="#E5B683" width="37.307" height="67.204"/>
<path fill-rule="evenodd" clip-rule="evenodd" fill="#44220F" d="M105.459,20.861c7.834,9.325,12.521,21.163,12.521,34.045
	c0,30.086-25.563,54.475-57.098,54.475c-31.533,0-57.096-24.389-57.096-54.475c0-27.07,21.238-52.787,48.086-52.401
	C71.926-4.968,92.301,5.198,105.459,20.861z"/>
<path fill-rule="evenodd" clip-rule="evenodd" fill="#FAD3A8" d="M60.543,22.461c25.189,0,47.227,14.409,44.07,47.145
	c-0.898,9.319,8.164,4.398,8.164,7.766c0,27.799-23.234,50.335-51.895,50.335S8.99,105.17,8.99,77.372
	c6.117,8.898,6.82-2.383,6.777-7.596C15.508,38.92,34.141,22.461,60.543,22.461z"/>
<ellipse fill-rule="evenodd" clip-rule="evenodd" fill="#333333" cx="43.305" cy="64.393" rx="4.467" ry="7.514"/>
<circle fill-rule="evenodd" clip-rule="evenodd" fill="#FFFFFF" cx="43.957" cy="60.641" r="2.628"/>
<ellipse fill-rule="evenodd" clip-rule="evenodd" fill="#333333" cx="78.463" cy="64.393" rx="4.467" ry="7.514"/>
<circle fill-rule="evenodd" clip-rule="evenodd" fill="#FFFFFF" cx="79.115" cy="60.641" r="2.628"/>
<path fill-rule="evenodd" clip-rule="evenodd" fill="#44220F" d="M78.357,15.705c20.084,8.055,36.365,19.963,36.365,26.597
	s-16.281,5.482-36.365-2.572S41.992,19.766,41.992,13.131C41.992,6.498,58.273,7.649,78.357,15.705z"/>
<path fill-rule="evenodd" clip-rule="evenodd" fill="#FAD3A8" d="M2.23,60.241c2.867-1.23,7.404,3.628,10.131,10.851
	s2.611,14.074-0.258,15.304S4.699,82.766,1.973,75.544C-0.756,68.322-0.639,61.469,2.23,60.241z"/>
<ellipse transform="matrix(0.3134 -0.9496 0.9496 0.3134 9.008 159.0951)" fill-rule="evenodd" clip-rule="evenodd" fill="#FAD3A8" cx="114.529" cy="73.318" rx="13.771" ry="7.102"/>
<path fill-rule="evenodd" clip-rule="evenodd" fill="#00AA9E" d="M116.686,154.027c-9.654-7.866-27.586-14.034-37.041-17.592
	c-1.752,6.623-9.484,24.597-18.762,24.597c-9.275,0-17.01-17.974-18.76-24.597c-9.455,3.558-27.387,9.726-37.041,17.592
	c15.844,10.972,35.07,17.405,55.801,17.405C81.615,171.432,100.84,164.999,116.686,154.027z"/>
<path fill="#C69C6D" d="M66.871,84.235c1.498-1.032,3.736-0.035,2.238,0.998c-4.537,3.133-11.885,3.134-16.422,0
	c-1.5-1.034,0.521-1.845,2.236-0.998C58.33,85.917,63.725,85.85,66.871,84.235z"/>
<path fill="#44220F" d="M59.947,136.996c-13.283,0.399-23.904-6.102-31.746-13.312c-11.23-10.327-23.141-30.316-16.398-62.023
	c4.682-22.025,3.369-2.48,3.938,7.744c0.379,7.044,1.348,35.429,17.68,47.533c4.121,3.054,12.156,7.131,18.352,7.332
	c2.701-0.212,4.822-2.512,7.713-2.512c0.156,0,0.311,0.008,0.463,0.02c0.102-0.008,0.205-0.014,0.307-0.018
	c0.104,0.004,0.205,0.01,0.307,0.018c0.152-0.012,0.307-0.02,0.465-0.02c2.889,0,5.01,2.3,7.713,2.512
	c6.195-0.201,14.23-4.278,18.35-7.332c16.334-12.104,17.303-40.489,17.682-47.533c0.568-10.225,2.32-30.473,5.207-8.141
	c4.775,36.945-6.439,52.093-17.67,62.42c-7.84,7.21-18.461,13.711-31.746,13.312l-0.307,0.007L59.947,136.996z"/>
<path fill-rule="evenodd" clip-rule="evenodd" fill="#DBAF81" d="M83.607,98.639c-1.557,6.402-46.242,5.784-45.436,0
	C53.316,101.877,68.461,101.956,83.607,98.639z"/>
<path fill-rule="evenodd" clip-rule="evenodd" fill="#DBAF81" d="M70.777,105.5c-0.678,4.354-20.133,3.935-19.783,0
	C57.59,107.704,64.184,107.755,70.777,105.5z"/>
<path fill="#44220F" d="M32.354,59.137c-2.398,1.613-4.924-0.14-2.525-1.749c5.996-4.023,16.051-3.933,21.793,0.179
	c2.334,1.672-0.959,4.397-3.287,2.73C44.377,57.465,36.504,56.358,32.354,59.137z"/>
<path fill="#44220F" d="M89.414,59.137c2.398,1.613,4.924-0.14,2.525-1.749c-5.996-4.023-16.051-3.933-21.793,0.179
	c-2.334,1.672,0.959,4.397,3.287,2.73C77.391,57.465,85.264,56.358,89.414,59.137z"/>
</svg>
