<?xml version="1.0" encoding="utf-8"?>
<!-- Generator: Adobe Illustrator 15.0.0, SVG Export Plug-In  -->
<!DOCTYPE svg PUBLIC "-//W3C//DTD SVG 1.1//EN" "http://www.w3.org/Graphics/SVG/1.1/DTD/svg11.dtd" [
	<!ENTITY ns_flows "http://ns.adobe.com/Flows/1.0/">
]>
<svg version="1.1"
	 xmlns="http://www.w3.org/2000/svg" xmlns:xlink="http://www.w3.org/1999/xlink" xmlns:a="http://ns.adobe.com/AdobeSVGViewerExtensions/3.0/"
	 x="0px" y="0px" width="196px" height="196px" viewBox="0 0 196 196" enable-background="new 0 0 196 196" xml:space="preserve">
<defs>
</defs>
<path display="none" fill-rule="evenodd" clip-rule="evenodd" fill="#FFFFFF" d="M98.142,196.285
	c54.056,0,98.142-44.088,98.142-98.143C196.284,44.087,152.198,0,98.142,0C44.087,0,0,44.087,0,98.143
	C0,152.197,44.087,196.285,98.142,196.285z"/>
<rect x="79.488" y="118.098" fill-rule="evenodd" clip-rule="evenodd" fill="#E5B683" width="37.307" height="67.203"/>
<ellipse fill-rule="evenodd" clip-rule="evenodd" fill="#602E11" cx="98.143" cy="83.568" rx="57.096" ry="58.285"/>
<path fill-rule="evenodd" clip-rule="evenodd" fill="#FAD3A8" d="M100.053,48.064c25.189,0,44.975,13.659,41.818,46.395
	c-0.898,9.32,8.164,4.398,8.164,7.765c0,27.8-23.232,50.335-51.894,50.335c-28.66,0-51.894-22.535-51.894-50.335
	c6.118,8.898,7.054-2.39,6.777-7.596C50.764,52.011,73.651,48.064,100.053,48.064z"/>
<path fill-rule="evenodd" clip-rule="evenodd" fill="#E18C66" d="M121.506,122.398c-12.611,17.867-34.117,17.867-46.728,0H121.506z"
	/>
<path fill-rule="evenodd" clip-rule="evenodd" fill="#EDA17D" d="M112.131,131.563c-8.799,5.647-19.179,5.647-27.979,0
	C92.55,121.801,103.735,121.801,112.131,131.563z"/>
<ellipse fill-rule="evenodd" clip-rule="evenodd" fill="#333333" cx="80.563" cy="89.245" rx="4.466" ry="7.514"/>
<circle fill-rule="evenodd" clip-rule="evenodd" fill="#FFFFFF" cx="81.215" cy="85.492" r="2.629"/>
<ellipse fill-rule="evenodd" clip-rule="evenodd" fill="#333333" cx="115.721" cy="89.245" rx="4.467" ry="7.514"/>
<circle fill-rule="evenodd" clip-rule="evenodd" fill="#FFFFFF" cx="116.374" cy="85.492" r="2.629"/>
<path fill-rule="evenodd" clip-rule="evenodd" fill="#602E11" d="M115.616,40.557c20.084,8.055,36.365,19.963,36.365,26.597
	s-16.281,5.482-36.365-2.573c-20.084-8.055-36.367-19.963-36.367-26.597S95.531,32.501,115.616,40.557z"/>
<ellipse transform="matrix(0.3134 -0.9496 0.9496 0.3134 10.9884 211.5383)" fill-rule="evenodd" clip-rule="evenodd" fill="#FAD3A8" cx="151.788" cy="98.17" rx="13.771" ry="7.102"/>
<ellipse transform="matrix(-0.3135 -0.9496 0.9496 -0.3135 -33.3115 172.2582)" fill-rule="evenodd" clip-rule="evenodd" fill="#FAD3A8" cx="45.611" cy="98.17" rx="13.772" ry="7.102"/>
<path fill-rule="evenodd" clip-rule="evenodd" fill="#602E11" d="M62.401,44.974c-11.177,7.073-11.739,19.248-11.739,22.766
	c0,3.518,9.061,0.637,20.238-6.436c11.176-7.073,20.237-15.658,20.237-19.176C91.138,38.609,73.579,37.901,62.401,44.974z"/>
<path fill-rule="evenodd" clip-rule="evenodd" fill="#FFFFFF" d="M108.413,122.398c-0.572,4.805-20.357,4.316-20.541,0H108.413z"/>
<path fill-rule="evenodd" clip-rule="evenodd" fill="#E8603C" d="M153.944,178.879c-9.654-7.865-27.584-14.035-37.041-17.592
	c-1.752,6.623-9.484,11.614-18.76,11.614c-9.276,0-17.01-4.991-18.762-11.614c-9.455,3.557-27.387,9.727-37.04,17.592
	c15.844,10.973,35.07,17.406,55.802,17.406C118.874,196.285,138.1,189.851,153.944,178.879z"/>
<path fill="#44220F" d="M126.077,82.391c1.096,2.272-1.969,2.649-3.066,0.376c-1.893-3.92-7.572-4.839-11.604-3.392
	c-2.371,0.852-3.67-2.755-1.293-3.609C115.963,73.665,123.325,76.706,126.077,82.391z"/>
<path fill="#C69C6D" d="M104.112,111.728c1.498-1.032,3.736-0.036,2.238,0.998c-4.537,3.133-11.884,3.133-16.421,0
	c-1.499-1.034,0.521-1.845,2.237-0.998C95.571,113.409,100.967,113.343,104.112,111.728z"/>
<path fill-rule="evenodd" clip-rule="evenodd" fill="#602E11" d="M137.417,74.486c-13.738,4.695-55.335-6.977-59.332-44.94
	C87.863,57.68,119.956,69.492,137.417,74.486z"/>
<path fill="#44220F" d="M70.616,74.464c-1.496,2.031,1.444,2.967,2.943,0.936c2.585-3.502,8.336-3.358,12.031-1.191
	c2.173,1.275,4.115-2.03,1.936-3.309C82.167,67.756,74.37,69.385,70.616,74.464z"/>
<path fill="#602E11" d="M98.257,116.291l0.154,0.002c13.232,0,18.294-5.705,26.445-0.54c17.486,11.083,18.016-34.834,17.672-40.707
	c-0.541-12.61,12.281-2.22,7.412,3.635c-4.867,5.854-5.447,14.451-3.615,35.358c1.834,20.906-29.66,40.701-46.975,40.701
	c-0.374,0-0.737-0.008-1.093-0.021v-16.85c3.373,0.239,5.712,3.613,9.324,2.828c12.143-2.641,17.873-12.711,17.895-17.777
	c0.029-6.892-13.32-3.022-27.106-2.898h-0.112V116.291z M70.631,116.511c7.344-5.742,20.212-0.294,27.626-0.22v3.73
	c-13.066,0.096-26.551-3.811-27.177,2.119c-0.545,5.129,4.267,15.772,17.081,18.549c3.756,0.814,6.133-2.834,9.721-2.834
	c0.127,0,0.252,0.004,0.375,0.014v16.85c-0.126-0.006-0.251-0.012-0.375-0.018c-0.477,0.025-0.965,0.039-1.47,0.039
	c-17.313,0-48.808-19.795-46.975-40.701c1.833-20.907,1.252-29.503-3.618-35.358c-4.868-5.855,7.956-16.246,7.415-3.635
	C52.331,90.443,56.326,123.34,70.631,116.511z"/>
</svg>
