<?xml version="1.0" encoding="utf-8"?>
<!-- Generator: Adobe Illustrator 15.0.0, SVG Export Plug-In  -->
<!DOCTYPE svg PUBLIC "-//W3C//DTD SVG 1.1//EN" "http://www.w3.org/Graphics/SVG/1.1/DTD/svg11.dtd" [
	<!ENTITY ns_flows "http://ns.adobe.com/Flows/1.0/">
]>
<svg version="1.1"
	 xmlns="http://www.w3.org/2000/svg" xmlns:xlink="http://www.w3.org/1999/xlink" xmlns:a="http://ns.adobe.com/AdobeSVGViewerExtensions/3.0/"
	 x="0px" y="0px" width="196px" height="196px" viewBox="-30.021 -22.558 196 196" enable-background="new -30.021 -22.558 196 196"
	 xml:space="preserve">
<defs>
</defs>
<path fill-rule="evenodd" clip-rule="evenodd" fill="#D69229" d="M67.845,124.03c5.699-39.125,48.629-78.567,55.846-82.746
	c8.836,22.976,24.652,61.525-6.148,81.399C99.179,124.234,76.224,124.03,67.845,124.03z"/>
<path fill-rule="evenodd" clip-rule="evenodd" fill="#D69229" d="M67.845,124.03c-5.697-39.125-48.627-78.567-55.846-82.746
	c-8.836,22.976-24.65,61.525,6.148,81.399C36.511,124.234,59.468,124.03,67.845,124.03z"/>
<rect x="49.468" y="95.539" fill-rule="evenodd" clip-rule="evenodd" fill="#E5B683" width="37.307" height="67.204"/>
<ellipse fill-rule="evenodd" clip-rule="evenodd" fill="#44220F" cx="68.12" cy="57.2" rx="57.098" ry="54.475"/>
<path fill-rule="evenodd" clip-rule="evenodd" fill="none" stroke="#C99153" stroke-width="3.8401" stroke-linecap="round" stroke-linejoin="round" stroke-miterlimit="22.9256" d="
	M76.63,85.648c-4.686,4.62-12.332,4.62-17.018,0"/>
<path fill-rule="evenodd" clip-rule="evenodd" fill="#E18C66" d="M95.675,96.261c-14.873,22.639-40.234,22.639-55.109,0H95.675z"/>
<path fill-rule="evenodd" clip-rule="evenodd" fill="#EDA17D" d="M84.62,107.874c-10.379,7.155-22.619,7.155-32.998,0
	C61.526,95.505,74.718,95.504,84.62,107.874z"/>
<ellipse fill-rule="evenodd" clip-rule="evenodd" fill="#333333" cx="50.542" cy="66.687" rx="4.467" ry="7.514"/>
<circle fill-rule="evenodd" clip-rule="evenodd" fill="#FFFFFF" cx="51.194" cy="62.934" r="2.629"/>
<ellipse fill-rule="evenodd" clip-rule="evenodd" fill="#333333" cx="85.7" cy="66.687" rx="4.467" ry="7.514"/>
<circle fill-rule="evenodd" clip-rule="evenodd" fill="#FFFFFF" cx="86.353" cy="62.934" r="2.629"/>
<path fill-rule="evenodd" clip-rule="evenodd" fill="none" stroke="#44220F" stroke-width="3.8401" stroke-linecap="round" stroke-linejoin="round" stroke-miterlimit="22.9256" d="
	M41.06,56.393c1.688-5.155,7.664-8.509,12.707-7.429"/>
<path fill-rule="evenodd" clip-rule="evenodd" fill="none" stroke="#44220F" stroke-width="3.8401" stroke-linecap="round" stroke-linejoin="round" stroke-miterlimit="22.9256" d="
	M95.183,56.393c-1.686-5.155-7.664-8.509-12.707-7.429"/>
<path fill-rule="evenodd" clip-rule="evenodd" fill="#44220F" d="M85.595,17.999c20.084,8.055,36.365,19.963,36.365,26.597
	c0,6.634-16.281,5.482-36.365-2.573C65.511,33.968,49.229,22.06,49.229,15.426S65.511,9.943,85.595,17.999z"/>
<path fill-rule="evenodd" clip-rule="evenodd" fill="#FAD3A8" d="M9.468,62.535c2.867-1.23,7.404,3.628,10.131,10.851
	s2.611,14.074-0.258,15.304c-2.869,1.23-7.404-3.629-10.131-10.852C6.481,70.615,6.599,63.764,9.468,62.535z"/>
<ellipse transform="matrix(0.3134 -0.9496 0.9496 0.3134 11.7985 167.5426)" fill-rule="evenodd" clip-rule="evenodd" fill="#FAD3A8" cx="121.767" cy="75.612" rx="13.771" ry="7.102"/>
<path fill-rule="evenodd" clip-rule="evenodd" fill="#44220F" d="M32.38,22.416c-11.176,7.073-11.738,19.248-11.738,22.766
	c0,3.518,9.061,0.637,20.236-6.436c11.178-7.073,20.238-15.658,20.238-19.176C61.116,16.051,43.558,15.343,32.38,22.416z"/>
<path fill-rule="evenodd" clip-rule="evenodd" fill="#FFFFFF" d="M80.233,96.261c-0.676,6.089-24.008,5.47-24.225,0H80.233z"/>
<rect x="49.468" y="95.539" fill-rule="evenodd" clip-rule="evenodd" fill="#E5B683" width="37.307" height="67.204"/>
<path fill-rule="evenodd" clip-rule="evenodd" fill="#D69229" d="M68.12,1.84c33.01-11.208,56.895,31.197,61.613,61.872
	s-30.078,47.963-61.613,47.963c-31.533,0-66.059-20.556-61.635-51.231S38.062-8.778,68.12,1.84z"/>
<path fill-rule="evenodd" clip-rule="evenodd" fill="#FAD3A8" d="M69.886,25.506c23.256,0,47.115,11.474,44.201,44.209
	c-0.83,9.319,3.533,5.629,3.533,8.997c0,27.799-37.873,51.288-49.5,51.288c-11.625,0-49.814-23.489-49.814-51.288
	c5.648,8.898,3.74-2.082,3.484-7.288C19.702,28.808,45.511,25.506,69.886,25.506z"/>
<ellipse fill-rule="evenodd" clip-rule="evenodd" fill="#333333" cx="50.542" cy="66.687" rx="4.467" ry="7.514"/>
<circle fill-rule="evenodd" clip-rule="evenodd" fill="#FFFFFF" cx="51.194" cy="62.934" r="2.629"/>
<ellipse fill-rule="evenodd" clip-rule="evenodd" fill="#333333" cx="85.7" cy="66.687" rx="4.467" ry="7.514"/>
<circle fill-rule="evenodd" clip-rule="evenodd" fill="#FFFFFF" cx="86.353" cy="62.934" r="2.629"/>
<path fill-rule="evenodd" clip-rule="evenodd" fill="#E5B683" d="M123.923,156.321c-9.654-7.865-27.586-14.034-37.041-17.592
	c-1.752,6.623-9.484,11.614-18.762,11.614c-9.275,0-17.01-4.991-18.76-11.614c-9.457,3.558-27.387,9.727-37.041,17.592
	c15.844,10.972,35.07,17.405,55.801,17.405C88.853,173.726,108.077,167.292,123.923,156.321z"/>
<path fill="#C69C6D" d="M73.036,87.946c1.23-0.848,3.068-0.029,1.838,0.819c-3.725,2.572-9.758,2.572-13.482,0
	c-1.23-0.85,0.428-1.515,1.836-0.819C66.024,89.327,70.454,89.273,73.036,87.946z"/>
<path fill-rule="evenodd" clip-rule="evenodd" fill="#D69229" d="M66.517,46.093c-70.012-0.303-46.121-34.222,1.602-34.222
	C118.206,11.871,138.849,46.405,66.517,46.093z"/>
<path fill="#D69229" d="M96.517,53.523c-3.521-0.21-9.568-3.058-14.887,2.054c-1.814,1.606-3.92-0.573-1.895-2.227
	C87.448,47.037,101.954,53.848,96.517,53.523z"/>
<path fill="#D69229" d="M39.726,53.523c3.521-0.21,9.568-3.058,14.887,2.054c1.813,1.606,3.918-0.573,1.893-2.227
	C48.792,47.037,34.288,53.848,39.726,53.523z"/>
<path fill-rule="evenodd" clip-rule="evenodd" fill="#E18C66" d="M87.479,97.153c-10.447,15.501-28.266,15.604-38.717,0
	c8.504-3.552,17.305,0.957,19.67,0.957C70.929,98.11,78.237,93.326,87.479,97.153z"/>
<ellipse transform="matrix(0.3135 -0.9496 0.9496 0.3135 11.4103 167.0062)" fill-rule="evenodd" clip-rule="evenodd" fill="#FAD3A8" cx="121.209" cy="75.612" rx="13.772" ry="7.101"/>
<ellipse transform="matrix(-0.3135 -0.9496 0.9496 -0.3135 -52.0538 113.591)" fill-rule="evenodd" clip-rule="evenodd" fill="#FAD3A8" cx="15.033" cy="75.612" rx="13.772" ry="7.101"/>
<path fill-rule="evenodd" clip-rule="evenodd" fill="#D69229" d="M20.474,114.201c0.307-19.097-0.572-54.176,30.355-86.786
	C18.159,25.958-1.771,85.365,20.474,114.201z"/>
<path fill-rule="evenodd" clip-rule="evenodd" fill="#D69229" d="M115.823,113.565c-0.309-19.097,0.572-54.176-30.355-86.786
	C119.312,22.96,137.817,82.173,115.823,113.565z"/>
<path fill-rule="evenodd" clip-rule="evenodd" fill="#E8603C" d="M87.868,139.098l-0.986-0.369
	c-1.752,6.623-9.484,11.614-18.762,11.614c-9.275,0-17.01-4.991-18.76-11.614l-0.986,0.369c-2.297,11.017-4.516,22.196-6.318,31.126
	c8.301,2.282,17.039,3.502,26.064,3.502s17.766-1.22,26.066-3.502C92.382,161.294,90.165,150.115,87.868,139.098z"/>
</svg>
