<?xml version="1.0" encoding="utf-8"?>
<!-- Generator: Adobe Illustrator 15.0.0, SVG Export Plug-In  -->
<!DOCTYPE svg PUBLIC "-//W3C//DTD SVG 1.1//EN" "http://www.w3.org/Graphics/SVG/1.1/DTD/svg11.dtd" [
	<!ENTITY ns_flows "http://ns.adobe.com/Flows/1.0/">
]>
<svg version="1.1"
	 xmlns="http://www.w3.org/2000/svg" xmlns:xlink="http://www.w3.org/1999/xlink" xmlns:a="http://ns.adobe.com/AdobeSVGViewerExtensions/3.0/"
	 x="0px" y="0px" width="196px" height="196px" viewBox="-37.603 -25.283 196 196" enable-background="new -37.603 -25.283 196 196"
	 xml:space="preserve">
<defs>
</defs>
<rect x="41.885" y="92.815" fill-rule="evenodd" clip-rule="evenodd" fill="#E5B683" width="37.307" height="67.203"/>
<ellipse fill-rule="evenodd" clip-rule="evenodd" fill="#602E11" cx="60.54" cy="58.285" rx="57.096" ry="58.285"/>
<path fill-rule="evenodd" clip-rule="evenodd" fill="#FAD3A8" d="M62.45,22.781c25.189,0,44.975,13.659,41.818,46.395
	c-0.898,9.32,8.164,4.398,8.164,7.765c0,27.8-23.232,50.335-51.894,50.335c-28.66,0-51.894-22.535-51.894-50.335
	c6.118,8.898,7.054-2.39,6.777-7.596C13.161,26.728,36.048,22.781,62.45,22.781z"/>
<path fill-rule="evenodd" clip-rule="evenodd" fill="#602E11" d="M78.013,15.274c20.084,8.055,36.365,19.963,36.365,26.597
	s-16.281,5.482-36.365-2.573c-20.084-8.055-36.367-19.963-36.367-26.597S57.928,7.218,78.013,15.274z"/>
<ellipse transform="matrix(0.3134 -0.9496 0.9496 0.3134 9.1803 158.4721)" fill-rule="evenodd" clip-rule="evenodd" fill="#FAD3A8" cx="114.185" cy="72.887" rx="13.771" ry="7.102"/>
<ellipse transform="matrix(-0.3135 -0.9496 0.9496 -0.3135 -58.6946 103.3421)" fill-rule="evenodd" clip-rule="evenodd" fill="#FAD3A8" cx="8.008" cy="72.888" rx="13.772" ry="7.102"/>
<path fill-rule="evenodd" clip-rule="evenodd" fill="#602E11" d="M24.798,19.691c-11.177,7.073-11.739,19.248-11.739,22.766
	c0,3.518,9.061,0.637,20.238-6.436c11.176-7.073,20.237-15.658,20.237-19.176C53.535,13.327,35.976,12.618,24.798,19.691z"/>
<path fill-rule="evenodd" clip-rule="evenodd" d="M116.341,153.596c-9.654-7.865-27.584-14.035-37.041-17.592
	c-1.752,6.623-9.484,11.614-18.76,11.614c-9.276,0-17.01-4.991-18.762-11.614c-9.455,3.557-27.387,9.727-37.04,17.592
	c15.844,10.973,35.07,17.406,55.802,17.406C81.271,171.002,100.497,164.568,116.341,153.596z"/>
<path fill-rule="evenodd" clip-rule="evenodd" fill="#602E11" d="M99.813,49.204c-13.738,4.695-55.335-6.977-59.332-44.94
	C50.26,32.397,82.353,44.209,99.813,49.204z"/>
<path fill="#602E11" d="M60.654,91.008l0.154,0.002c13.232,0,18.294-5.705,26.445-0.54c17.486,11.083,18.016-34.834,17.672-40.707
	c-0.541-12.61,12.281-2.22,7.412,3.635c-4.867,5.854-5.447,14.451-3.615,35.358c1.834,20.906-29.66,40.701-46.975,40.701
	c-0.374,0-0.737-0.008-1.093-0.021v-16.85c3.373,0.239,5.712,3.613,9.324,2.828c12.143-2.641,17.873-12.711,17.895-17.777
	c0.029-6.892-13.32-3.022-27.106-2.898h-0.112V91.008z M33.028,91.228c7.344-5.742,20.212-0.294,27.626-0.22v3.73
	c-13.066,0.096-26.551-3.811-27.177,2.119c-0.545,5.129,4.267,15.772,17.081,18.549c3.756,0.814,6.133-2.834,9.721-2.834
	c0.127,0,0.252,0.004,0.375,0.014v16.85c-0.126-0.006-0.251-0.012-0.375-0.018c-0.477,0.025-0.965,0.039-1.47,0.039
	c-17.313,0-48.808-19.795-46.975-40.701c1.833-20.907,1.252-29.503-3.618-35.358c-4.868-5.855,7.956-16.246,7.415-3.635
	C14.728,65.16,18.723,98.057,33.028,91.228z"/>
</svg>
