<?xml version="1.0" encoding="utf-8"?>
<!-- Generator: Adobe Illustrator 15.0.0, SVG Export Plug-In  -->
<!DOCTYPE svg PUBLIC "-//W3C//DTD SVG 1.1//EN" "http://www.w3.org/Graphics/SVG/1.1/DTD/svg11.dtd" [
	<!ENTITY ns_flows "http://ns.adobe.com/Flows/1.0/">
]>
<svg version="1.1"
	 xmlns="http://www.w3.org/2000/svg" xmlns:xlink="http://www.w3.org/1999/xlink" xmlns:a="http://ns.adobe.com/AdobeSVGViewerExtensions/3.0/"
	 x="0px" y="0px" width="196px" height="196px" viewBox="-37.258 -25.283 196 196" enable-background="new -37.258 -25.283 196 196"
	 xml:space="preserve">
<defs>
</defs>
<rect x="42.23" y="92.814" fill-rule="evenodd" clip-rule="evenodd" fill="#E5B683" width="37.307" height="67.204"/>
<path fill-rule="evenodd" clip-rule="evenodd" fill="#602E11" d="M60.883,0c48.732,0,55.359,24.39,55.359,54.475
	c0,30.086-24.785,54.476-55.359,54.476c-30.573,0-55.357-24.39-55.357-54.476C5.526,24.39,12.153,0,60.883,0z"/>
<path fill-rule="evenodd" clip-rule="evenodd" fill="#FAD3A8" d="M62.795,22.781c25.189,0,44.975,13.659,41.818,46.395
	c-0.898,9.32,8.164,4.398,8.164,7.765c0,27.8-23.234,50.335-51.894,50.335c-28.659,0-51.894-22.535-51.894-50.335
	c6.118,8.898,7.054-2.39,6.777-7.596C13.505,26.728,36.393,22.781,62.795,22.781z"/>
<path fill-rule="evenodd" clip-rule="evenodd" fill="none" stroke="#C99153" stroke-width="3.8401" stroke-linecap="round" stroke-linejoin="round" stroke-miterlimit="22.9256" d="
	M69.393,82.923c-4.686,4.62-12.333,4.62-17.018,0"/>
<path fill-rule="evenodd" clip-rule="evenodd" fill="#E18C66" d="M88.438,93.537c-14.873,22.639-40.235,22.639-55.108,0H88.438z"/>
<path fill-rule="evenodd" clip-rule="evenodd" fill="#EDA17D" d="M77.383,105.149c-10.379,7.155-22.62,7.155-32.998,0
	C54.289,92.781,67.479,92.78,77.383,105.149z"/>
<ellipse fill-rule="evenodd" clip-rule="evenodd" fill="#333333" cx="43.305" cy="63.962" rx="4.466" ry="7.514"/>
<circle fill-rule="evenodd" clip-rule="evenodd" fill="#FFFFFF" cx="43.957" cy="60.21" r="2.629"/>
<ellipse fill-rule="evenodd" clip-rule="evenodd" fill="#333333" cx="78.463" cy="63.962" rx="4.467" ry="7.514"/>
<circle fill-rule="evenodd" clip-rule="evenodd" fill="#FFFFFF" cx="79.115" cy="60.21" r="2.629"/>
<path fill-rule="evenodd" clip-rule="evenodd" fill="none" stroke="#44220F" stroke-width="3.8401" stroke-linecap="round" stroke-linejoin="round" stroke-miterlimit="22.9256" d="
	M33.823,53.668c1.687-5.155,7.664-8.509,12.706-7.429"/>
<path fill-rule="evenodd" clip-rule="evenodd" fill="none" stroke="#44220F" stroke-width="3.8401" stroke-linecap="round" stroke-linejoin="round" stroke-miterlimit="22.9256" d="
	M87.945,53.668c-1.688-5.155-7.664-8.509-12.707-7.429"/>
<path fill-rule="evenodd" clip-rule="evenodd" fill="#FAD3A8" d="M2.229,59.81c2.869-1.23,7.405,3.628,10.132,10.851
	c2.728,7.223,2.612,14.074-0.257,15.304c-2.869,1.23-7.405-3.629-10.132-10.852C-0.755,67.891-0.639,61.039,2.229,59.81z"/>
<path fill-rule="evenodd" clip-rule="evenodd" fill="#FAD3A8" d="M118.848,59.81c-3.725-1.23-8.678,3.628-11.061,10.851
	c-2.385,7.223-1.299,14.074,2.424,15.304c3.727,1.23,8.678-3.629,11.063-10.852C123.658,67.891,122.57,61.039,118.848,59.81z"/>
<path fill-rule="evenodd" clip-rule="evenodd" fill="#44220F" d="M25.144,19.691c-11.178,7.073-11.74,19.248-11.74,22.766
	c0,3.518,9.061,0.637,20.237-6.436c11.178-7.073,20.238-15.658,20.238-19.176C53.879,13.327,36.321,12.618,25.144,19.691z"/>
<path fill-rule="evenodd" clip-rule="evenodd" fill="#FFFFFF" d="M72.996,93.537c-0.676,6.089-24.008,5.47-24.224,0H72.996z"/>
<rect x="42.23" y="92.814" fill-rule="evenodd" clip-rule="evenodd" fill="#E5B683" width="37.307" height="67.204"/>
<ellipse fill-rule="evenodd" clip-rule="evenodd" fill="#602E11" cx="60.883" cy="54.475" rx="53.017" ry="54.475"/>
<path fill-rule="evenodd" clip-rule="evenodd" fill="#FAD3A8" d="M62.861,22.781c7.285,0,15.33-2.122,21.346,0.132
	c15.492,5.808,19.598,27.858,17.246,51.439c-0.529,5.305,3.441,6.305,5.592,1.136c1.182-2.837,7.512,0.001,7.512,1.452
	c0,27.799-24.029,50.335-53.673,50.335c-29.643,0-53.672-22.536-53.672-50.335c1.069,1.504,6.236-0.203,6.647,0.834
	c3.083,7.793,5.517,2.367,5.279-1.959c-1.599-29.152,4.853-49.473,20.433-53.549C46.767,20.384,54.234,22.781,62.861,22.781z"/>
<ellipse fill-rule="evenodd" clip-rule="evenodd" fill="#333333" cx="43.305" cy="66.292" rx="4.466" ry="7.514"/>
<circle fill-rule="evenodd" clip-rule="evenodd" fill="#FFFFFF" cx="43.957" cy="62.539" r="2.629"/>
<ellipse fill-rule="evenodd" clip-rule="evenodd" fill="#333333" cx="78.463" cy="66.292" rx="4.467" ry="7.514"/>
<circle fill-rule="evenodd" clip-rule="evenodd" fill="#FFFFFF" cx="79.115" cy="62.539" r="2.629"/>
<path fill-rule="evenodd" clip-rule="evenodd" fill="#FAD3A8" d="M2.229,59.81c2.869-1.23,7.405,3.628,10.132,10.851
	c2.728,7.223,2.612,14.074-0.257,15.304c-2.869,1.23-7.405-3.629-10.132-10.852C-0.755,67.891-0.639,61.039,2.229,59.81z"/>
<path fill-rule="evenodd" clip-rule="evenodd" fill="#FAD3A8" d="M118.848,59.81c-3.725-1.23-8.678,3.628-11.061,10.851
	c-2.385,7.223-1.299,14.074,2.424,15.304c3.727,1.23,8.678-3.629,11.063-10.852C123.658,67.891,122.57,61.039,118.848,59.81z"/>
<path fill-rule="evenodd" clip-rule="evenodd" fill="#7A91BF" d="M116.686,153.596c-9.654-7.865-27.586-14.034-37.041-17.592
	c-1.752,6.623-9.484,11.614-18.761,11.614c-9.275,0-17.009-4.991-18.762-11.614c-9.454,3.558-27.387,9.727-37.039,17.592
	c15.845,10.972,35.07,17.405,55.801,17.405C81.615,171.001,100.84,164.568,116.686,153.596z"/>
<path fill-rule="evenodd" clip-rule="evenodd" fill="#C7D2E6" d="M53.268,170.709c2.686-6.413,4.628-8.132-0.92-13.51
	c-7.012-6.796,0.173-16.09,8.497-16.09c8.323,0,15.604,9.041,8.592,15.835c-5.559,5.388-3.693,7.264-1.039,13.772
	c-2.48,0.188-4.986,0.284-7.515,0.284C58.321,171.001,55.782,170.903,53.268,170.709z"/>
<path fill-rule="evenodd" clip-rule="evenodd" fill="#536D9D" d="M60.916,141.445l-18.103,19.688
	c-5.595-6.612-7.844-13.617-9.861-21.327c5.63-3.226,8.021-6.662,9.363-12.666c-0.707,16.298,38.843,18.519,37.082-0.067
	c1.266,6.258,3.086,10.72,9.467,12.671c-2.002,7.573-4.35,14.894-9.846,21.39L60.916,141.445z"/>
<path fill-rule="evenodd" clip-rule="evenodd" fill="#7A91BF" d="M61.531,140.067L42.813,157.43
	c-5.595-5.239-7.335-11.823-9.353-17.932c4.815-3.039,7.513-7.616,8.854-12.373c-0.711,16.479,38.841,18.144,37.082-0.054
	c1.266,4.958,4.205,9.396,9.162,12.475c-2.004,6-4.045,12.737-9.541,17.884L61.531,140.067z"/>
<path fill="#C69C6D" d="M66.871,90.784c1.498-1.032,3.736-0.035,2.238,0.999c-4.537,3.132-11.885,3.133-16.422,0
	c-1.499-1.035,0.521-1.846,2.237-0.999C58.331,92.465,63.725,92.399,66.871,90.784z"/>
<path fill-rule="evenodd" clip-rule="evenodd" fill="#9EAECD" d="M66.557,160.454c-2.084-1.694-8.871-1.339-11.318,0.278
	c0.278,0.52,0.462,1.013,0.564,1.5c0.538-0.333,1.072-0.61,1.266-0.465c0.455,0.339,1.444,3.811,2.063,3.863
	c1.449,0.126,0.366-4.929,1.846-4.663c1.375,0.247,0.748,5.589,2.406,5.744c0.814,0.076,0.482-3.688,1.715-4.975
	c0.086-0.09,0.471-0.141,0.932-0.017C66.146,161.308,66.32,160.889,66.557,160.454z"/>
<path fill="#602E11" d="M32.354,50.863c-2.399,1.612-4.925-0.14-2.526-1.75c5.996-4.023,16.052-3.932,21.794,0.179
	c2.334,1.671-0.96,4.396-3.288,2.73C44.377,49.19,36.503,48.083,32.354,50.863z"/>
<path fill="#602E11" d="M89.414,50.863c2.398,1.612,4.924-0.14,2.525-1.749c-5.996-4.024-16.051-3.933-21.793,0.179
	c-2.334,1.671,0.959,4.396,3.287,2.73C77.391,49.191,85.264,48.083,89.414,50.863z"/>
<path fill-rule="evenodd" clip-rule="evenodd" fill="#DBAF81" d="M83.607,102.228c-1.559,6.402-46.243,5.784-45.436,0
	C53.317,105.466,68.461,105.544,83.607,102.228z"/>
<path fill-rule="evenodd" clip-rule="evenodd" fill="#DBAF81" d="M70.777,109.09c-0.678,4.354-20.133,3.934-19.783,0
	C57.589,111.292,64.184,111.345,70.777,109.09z"/>
</svg>
