<?xml version="1.0" encoding="utf-8"?>
<!-- Generator: Adobe Illustrator 15.0.0, SVG Export Plug-In  -->
<!DOCTYPE svg PUBLIC "-//W3C//DTD SVG 1.1//EN" "http://www.w3.org/Graphics/SVG/1.1/DTD/svg11.dtd" [
	<!ENTITY ns_flows "http://ns.adobe.com/Flows/1.0/">
]>
<svg version="1.1"
	 xmlns="http://www.w3.org/2000/svg" xmlns:xlink="http://www.w3.org/1999/xlink" xmlns:a="http://ns.adobe.com/AdobeSVGViewerExtensions/3.0/"
	 x="0px" y="0px" width="196px" height="196px" viewBox="0 0 196 196" enable-background="new 0 0 196 196" xml:space="preserve">
<defs>
</defs>
<path display="none" fill-rule="evenodd" clip-rule="evenodd" fill="#FFFFFF" d="M98.142,196.284
	c54.056,0,98.142-44.087,98.142-98.143C196.284,44.087,152.198,0,98.142,0C44.087,0,0,44.087,0,98.142
	C0,152.197,44.087,196.284,98.142,196.284z"/>
<rect x="79.488" y="118.097" fill-rule="evenodd" clip-rule="evenodd" fill="#E5B683" width="37.307" height="67.204"/>
<ellipse fill-rule="evenodd" clip-rule="evenodd" fill="#44220F" cx="98.142" cy="79.757" rx="57.097" ry="54.475"/>
<path fill-rule="evenodd" clip-rule="evenodd" fill="#FAD3A8" d="M100.053,48.063c25.189,0,44.975,13.659,41.818,46.395
	c-0.898,9.32,8.164,4.398,8.164,7.765c0,27.801-23.234,50.336-51.894,50.336c-28.659,0-51.894-22.535-51.894-50.336
	c6.118,8.899,7.054-2.389,6.777-7.595C50.764,52.011,73.651,48.063,100.053,48.063z"/>
<path fill-rule="evenodd" clip-rule="evenodd" fill="none" stroke="#C99153" stroke-width="3.8401" stroke-linecap="round" stroke-linejoin="round" stroke-miterlimit="22.9256" d="
	M106.651,108.206c-4.686,4.62-12.333,4.62-17.018,0"/>
<path fill-rule="evenodd" clip-rule="evenodd" fill="#E18C66" d="M125.696,118.819c-14.873,22.639-40.235,22.639-55.108,0H125.696z"
	/>
<path fill-rule="evenodd" clip-rule="evenodd" fill="#EDA17D" d="M114.641,130.432c-10.379,7.155-22.62,7.155-32.998,0
	C91.547,118.063,104.737,118.063,114.641,130.432z"/>
<ellipse fill-rule="evenodd" clip-rule="evenodd" fill="#333333" cx="80.563" cy="89.245" rx="4.466" ry="7.514"/>
<circle fill-rule="evenodd" clip-rule="evenodd" fill="#FFFFFF" cx="81.215" cy="85.493" r="2.628"/>
<ellipse fill-rule="evenodd" clip-rule="evenodd" fill="#333333" cx="115.721" cy="89.245" rx="4.467" ry="7.514"/>
<circle fill-rule="evenodd" clip-rule="evenodd" fill="#FFFFFF" cx="116.374" cy="85.493" r="2.628"/>
<path fill-rule="evenodd" clip-rule="evenodd" fill="none" stroke="#44220F" stroke-width="3.8401" stroke-linecap="round" stroke-linejoin="round" stroke-miterlimit="22.9256" d="
	M71.081,78.951c1.687-5.155,7.664-8.51,12.706-7.429"/>
<path fill-rule="evenodd" clip-rule="evenodd" fill="none" stroke="#44220F" stroke-width="3.8401" stroke-linecap="round" stroke-linejoin="round" stroke-miterlimit="22.9256" d="
	M125.204,78.951c-1.688-5.155-7.664-8.51-12.707-7.429"/>
<path fill-rule="evenodd" clip-rule="evenodd" fill="#44220F" d="M115.616,40.557c20.084,8.055,36.367,19.963,36.367,26.597
	s-16.283,5.482-36.367-2.572C95.53,56.526,79.249,44.618,79.249,37.983C79.249,31.35,95.53,32.501,115.616,40.557z"/>
<path fill-rule="evenodd" clip-rule="evenodd" fill="#FAD3A8" d="M39.487,85.093c2.869-1.23,7.405,3.628,10.132,10.851
	c2.728,7.223,2.612,14.074-0.257,15.304s-7.405-3.629-10.132-10.851C36.503,93.174,36.619,86.321,39.487,85.093z"/>
<path fill-rule="evenodd" clip-rule="evenodd" fill="#FAD3A8" d="M156.106,85.093c-3.725-1.23-8.678,3.628-11.061,10.851
	c-2.385,7.223-1.299,14.074,2.424,15.304c3.727,1.229,8.678-3.629,11.063-10.851C160.917,93.174,159.829,86.321,156.106,85.093z"/>
<path fill-rule="evenodd" clip-rule="evenodd" fill="#44220F" d="M62.402,44.974c-11.178,7.073-11.74,19.248-11.74,22.766
	s9.061,0.637,20.237-6.437c11.178-7.072,20.238-15.658,20.238-19.176S73.579,37.901,62.402,44.974z"/>
<path fill-rule="evenodd" clip-rule="evenodd" fill="#FFFFFF" d="M110.254,118.819c-0.676,6.089-24.008,5.47-24.224,0H110.254z"/>
<rect x="79.488" y="118.097" fill-rule="evenodd" clip-rule="evenodd" fill="#E5B683" width="37.307" height="67.204"/>
<path fill-rule="evenodd" clip-rule="evenodd" fill="#44220F" d="M141.624,43.737c8.877,9.602,13.615,22.211,13.615,36.021
	c0,30.086-25.563,54.475-57.097,54.475c-31.533,0-55.972-24.41-57.096-54.475c-0.972-25.946,20.713-54.744,47.355-53.686
	C100.819,16.413,128.272,29.296,141.624,43.737z"/>
<path fill-rule="evenodd" clip-rule="evenodd" fill="#FAD3A8" d="M100.053,48.063c25.189,0,44.975,13.659,41.818,46.395
	c-0.898,9.32,8.164,4.398,8.164,7.765c0,27.801-23.234,50.336-51.894,50.336c-28.659,0-51.894-22.535-51.894-50.336
	c6.118,8.899,7.054-2.389,6.777-7.595C50.764,52.011,73.651,48.063,100.053,48.063z"/>
<path fill-rule="evenodd" clip-rule="evenodd" fill="#E18C66" d="M125.696,118.819c-14.873,22.639-40.235,22.639-55.108,0H125.696z"
	/>
<path fill-rule="evenodd" clip-rule="evenodd" fill="#EDA17D" d="M114.641,130.432c-10.379,7.155-22.62,7.155-32.998,0
	C91.547,118.063,104.737,118.063,114.641,130.432z"/>
<ellipse fill-rule="evenodd" clip-rule="evenodd" fill="#333333" cx="80.563" cy="89.245" rx="4.466" ry="7.514"/>
<circle fill-rule="evenodd" clip-rule="evenodd" fill="#FFFFFF" cx="81.215" cy="85.493" r="2.628"/>
<ellipse fill-rule="evenodd" clip-rule="evenodd" fill="#333333" cx="115.721" cy="89.245" rx="4.467" ry="7.514"/>
<circle fill-rule="evenodd" clip-rule="evenodd" fill="#FFFFFF" cx="116.374" cy="85.493" r="2.628"/>
<path fill-rule="evenodd" clip-rule="evenodd" fill="#44220F" d="M115.616,40.557c20.084,8.055,36.367,19.963,36.367,26.597
	s-16.283,5.482-36.367-2.572C95.53,56.526,79.249,44.618,79.249,37.983C79.249,31.35,95.53,32.501,115.616,40.557z"/>
<path fill-rule="evenodd" clip-rule="evenodd" fill="#FAD3A8" d="M39.487,85.093c2.869-1.23,7.405,3.628,10.132,10.851
	c2.728,7.223,2.612,14.074-0.257,15.304s-7.405-3.629-10.132-10.851C36.503,93.174,36.619,86.321,39.487,85.093z"/>
<path fill-rule="evenodd" clip-rule="evenodd" fill="#FAD3A8" d="M156.106,85.093c-3.725-1.23-8.678,3.628-11.061,10.851
	c-2.385,7.223-1.299,14.074,2.424,15.304c3.727,1.229,8.678-3.629,11.063-10.851C160.917,93.174,159.829,86.321,156.106,85.093z"/>
<path fill-rule="evenodd" clip-rule="evenodd" fill="#44220F" d="M62.402,44.974c-11.178,7.073-11.74,19.248-11.74,22.766
	s9.061,0.637,20.237-6.437c11.178-7.072,20.238-15.658,20.238-19.176S73.579,37.901,62.402,44.974z"/>
<path fill-rule="evenodd" clip-rule="evenodd" fill="#FFFFFF" d="M110.254,118.819c-0.676,6.089-24.008,5.47-24.224,0H110.254z"/>
<path fill-rule="evenodd" clip-rule="evenodd" fill="#676767" d="M153.944,178.879c-9.654-7.866-27.584-14.034-37.041-17.592
	c-1.752,6.623-9.484,7.631-18.761,7.631c-9.275,0-17.009-1.008-18.762-7.631c-9.455,3.558-27.386,9.726-37.039,17.592
	c15.845,10.972,35.07,17.405,55.801,17.405C118.874,196.284,138.098,189.851,153.944,178.879z"/>
<path fill="#C69C6D" d="M104.129,109.087c1.498-1.032,3.736-0.035,2.238,0.998c-4.537,3.133-11.885,3.134-16.422,0
	c-1.499-1.034,0.521-1.845,2.237-0.998C95.589,110.769,100.983,110.702,104.129,109.087z"/>
<path fill="#44220F" d="M69.612,74.872c-2.399,1.612-4.925-0.141-2.526-1.75c5.996-4.023,16.052-3.932,21.794,0.18
	c2.334,1.671-0.96,4.396-3.288,2.729C81.636,73.199,73.762,72.092,69.612,74.872z"/>
<path fill="#44220F" d="M126.672,74.872c2.398,1.612,4.924-0.141,2.525-1.749c-5.996-4.024-16.051-3.933-21.793,0.179
	c-2.334,1.671,0.959,4.396,3.287,2.729C114.649,73.2,122.522,72.092,126.672,74.872z"/>
<path fill-rule="evenodd" clip-rule="evenodd" fill="#E6E6E5" d="M98.79,168.709l-18.718,13.629
	c-5.595-5.239-7.335-11.326-9.353-17.434c4.815-3.039,7.513-4.38,8.854-9.137c-0.711,16.479,38.841,18.144,37.082-0.054
	c1.266,4.958,4.205,6.16,9.162,9.238c-2.004,6-4.045,12.239-9.541,17.386L98.79,168.709z"/>
</svg>
