<?xml version="1.0" encoding="utf-8"?>
<!-- Generator: Adobe Illustrator 15.0.0, SVG Export Plug-In  -->
<!DOCTYPE svg PUBLIC "-//W3C//DTD SVG 1.1//EN" "http://www.w3.org/Graphics/SVG/1.1/DTD/svg11.dtd" [
	<!ENTITY ns_flows "http://ns.adobe.com/Flows/1.0/">
]>
<svg version="1.1"
	 xmlns="http://www.w3.org/2000/svg" xmlns:xlink="http://www.w3.org/1999/xlink" xmlns:a="http://ns.adobe.com/AdobeSVGViewerExtensions/3.0/"
	 x="0px" y="0px" width="196px" height="196px" viewBox="-34.025 -24.039 196 196" enable-background="new -34.025 -24.039 196 196"
	 xml:space="preserve">
<defs>
</defs>
<rect x="45.463" y="94.059" fill-rule="evenodd" clip-rule="evenodd" fill="#E5B683" width="37.307" height="67.203"/>
<path fill-rule="evenodd" clip-rule="evenodd" fill="#E8603C" d="M64.561,0.921c31.288-7.231,62.29,29.553,62.29,60.331
	c0,30.777-29.637,48.941-62.734,48.941c-33.096,0-62.031-17.461-62.031-48.239C2.085,31.176,29.231-5.311,64.561,0.921z"/>
<path fill-rule="evenodd" clip-rule="evenodd" fill="#FAD3A8" d="M66.028,24.025c25.189,0,44.975,13.659,41.818,46.395
	c-0.898,9.32,8.164,4.397,8.164,7.764c0,27.801-23.234,50.336-51.894,50.336c-28.659,0-51.894-22.535-51.894-50.336
	c6.118,8.9,7.054-2.389,6.777-7.595C16.738,27.972,39.626,24.025,66.028,24.025z"/>
<path fill-rule="evenodd" clip-rule="evenodd" fill="none" stroke="#C99153" stroke-width="3.8401" stroke-linecap="round" stroke-linejoin="round" stroke-miterlimit="22.9256" d="
	M72.625,84.167c-4.686,4.62-12.333,4.62-17.018,0"/>
<path fill-rule="evenodd" clip-rule="evenodd" fill="#E18C66" d="M91.67,94.781c-14.873,22.639-40.235,22.639-55.108,0H91.67z"/>
<path fill-rule="evenodd" clip-rule="evenodd" fill="#EDA17D" d="M80.616,106.393c-10.379,7.155-22.62,7.155-32.998,0
	C57.521,94.023,70.711,94.023,80.616,106.393z"/>
<ellipse fill-rule="evenodd" clip-rule="evenodd" fill="#333333" cx="46.538" cy="65.206" rx="4.466" ry="7.514"/>
<circle fill-rule="evenodd" clip-rule="evenodd" fill="#FFFFFF" cx="47.189" cy="61.453" r="2.629"/>
<ellipse fill-rule="evenodd" clip-rule="evenodd" fill="#333333" cx="81.696" cy="65.206" rx="4.467" ry="7.514"/>
<circle fill-rule="evenodd" clip-rule="evenodd" fill="#FFFFFF" cx="82.348" cy="61.453" r="2.629"/>
<path fill-rule="evenodd" clip-rule="evenodd" fill="#FAD3A8" d="M5.462,61.054c2.869-1.23,7.405,3.628,10.132,10.851
	c2.728,7.223,2.612,14.074-0.257,15.304S7.932,83.58,5.205,76.357C2.478,69.134,2.594,62.283,5.462,61.054z"/>
<path fill-rule="evenodd" clip-rule="evenodd" fill="#FAD3A8" d="M122.081,61.054c-3.725-1.23-8.678,3.628-11.061,10.851
	c-2.385,7.223-1.299,14.074,2.424,15.304c3.727,1.229,8.678-3.628,11.063-10.851C126.891,69.134,125.803,62.283,122.081,61.054z"/>
<path fill-rule="evenodd" clip-rule="evenodd" fill="#FFFFFF" d="M76.229,94.781c-0.676,6.088-24.008,5.469-24.224,0H76.229z"/>
<path fill-rule="evenodd" clip-rule="evenodd" fill="#E8603C" d="M64.116,1.244c31.535,0,59.369,17.727,63.816,63.542
	c4.445,45.816,3.674,96.958-62.76,96.958c-66.43,0-67.736-46.016-63.992-93.704C4.926,20.351,32.583,1.244,64.116,1.244z"/>
<rect x="47.929" y="94.059" fill-rule="evenodd" clip-rule="evenodd" fill="#E5B683" width="32.376" height="67.203"/>
<path fill-rule="evenodd" clip-rule="evenodd" fill="#FAD3A8" d="M65.079,28.909c27.785-11.822,38.549,19.382,41.303,42.575
	c1.643,13.835,5.631,4.397,5.631,7.765c0,27.801-34.389,49.271-47.914,49.271c-13.525,0-48.409-22.535-48.409-50.335
	c5.707,8.898,5.582-2.443,6.322-7.596C26.269,40.95,37.026,19.125,65.079,28.909z"/>
<path fill-rule="evenodd" clip-rule="evenodd" fill="#E18C66" d="M77.959,96.098c-7.471,17.529-20.21,17.646-27.685,0
	c6.082-4.016,12.375,1.084,14.066,1.084C66.124,97.182,71.35,91.771,77.959,96.098z"/>
<ellipse fill-rule="evenodd" clip-rule="evenodd" fill="#333333" cx="46.538" cy="65.206" rx="4.467" ry="7.514"/>
<circle fill-rule="evenodd" clip-rule="evenodd" fill="#FFFFFF" cx="47.189" cy="61.453" r="2.629"/>
<ellipse fill-rule="evenodd" clip-rule="evenodd" fill="#333333" cx="81.696" cy="65.206" rx="4.467" ry="7.514"/>
<circle fill-rule="evenodd" clip-rule="evenodd" fill="#FFFFFF" cx="82.348" cy="61.454" r="2.628"/>
<path fill="#E8603C" d="M92.512,49.425c-3.521-0.21-9.568-3.058-14.887,2.054c-1.814,1.605-3.92-0.573-1.893-2.227
	C83.446,42.938,97.95,49.75,92.512,49.425z"/>
<path fill="#E8603C" d="M35.721,49.425c3.521-0.21,9.569-3.058,14.888,2.054c1.813,1.605,3.918-0.573,1.893-2.227
	C44.788,42.938,30.283,49.75,35.721,49.425z"/>
<path fill-rule="evenodd" clip-rule="evenodd" fill="#00AA9E" d="M119.918,154.84c-9.654-7.865-27.586-14.035-37.041-17.592
	c-1.752,6.623-9.484,11.614-18.761,11.614c-9.275,0-17.009-4.991-18.762-11.614c-9.454,3.557-27.387,9.727-37.039,17.592
	c15.845,10.973,35.07,17.406,55.801,17.406C84.848,172.246,104.073,165.812,119.918,154.84z"/>
<path fill-rule="evenodd" clip-rule="evenodd" fill="#5CC5C3" d="M64.115,147.9c-8.309-0.001-14.654-4.794-16.224-12.135
	c-3.357,1.563-8.49,2.844-13.299,5.253c-0.055,0.417-0.083,0.845-0.083,1.283c0,6.779,6.628,13.549,14.804,15.12
	c8.176,1.572,14.803-2.648,14.803-9.428L64.115,147.9z"/>
<path fill-rule="evenodd" clip-rule="evenodd" fill="#5CC5C3" d="M93.641,141.02c-4.809-2.41-9.809-4.576-13.166-6.139
	c-1.568,7.34-8.049,13.019-16.357,13.02l-0.002,0.094c0,6.779,6.628,11,14.804,9.429c8.176-1.572,14.803-8.342,14.803-15.12
	C93.723,141.863,93.696,141.436,93.641,141.02z"/>
<path fill-rule="evenodd" clip-rule="evenodd" fill="#E8603C" d="M65.483,28.664c-14.348-0.425-42.378,11.403-40.105,75.375
	C15.534,71.187,32.538,15.258,65.483,28.664z"/>
<path fill-rule="evenodd" clip-rule="evenodd" fill="#E8603C" d="M63.002,28.664c14.348-0.425,42.379,11.403,40.106,75.375
	C112.952,71.187,95.948,15.258,63.002,28.664z"/>
<path fill="#C69C6D" d="M69.838,82.635c1.498-1.032,3.736-0.035,2.238,0.998c-4.537,3.133-11.885,3.133-16.422,0
	c-1.499-1.034,0.521-1.846,2.237-0.998C61.297,84.316,66.692,84.25,69.838,82.635z"/>
<ellipse transform="matrix(0.3135 -0.9496 0.9496 0.3135 10.331 162.5519)" fill-rule="evenodd" clip-rule="evenodd" fill="#FAD3A8" cx="117.589" cy="74.131" rx="13.771" ry="7.101"/>
<ellipse transform="matrix(-0.3135 -0.9496 0.9496 -0.3135 -55.4021 108.2097)" fill-rule="evenodd" clip-rule="evenodd" fill="#FAD3A8" cx="11.414" cy="74.131" rx="13.772" ry="7.101"/>
</svg>
