<?xml version="1.0" encoding="utf-8"?>
<!-- Generator: Adobe Illustrator 15.0.0, SVG Export Plug-In  -->
<!DOCTYPE svg PUBLIC "-//W3C//DTD SVG 1.1//EN" "http://www.w3.org/Graphics/SVG/1.1/DTD/svg11.dtd" [
	<!ENTITY ns_flows "http://ns.adobe.com/Flows/1.0/">
]>
<svg version="1.1"
	 xmlns="http://www.w3.org/2000/svg" xmlns:xlink="http://www.w3.org/1999/xlink" xmlns:a="http://ns.adobe.com/AdobeSVGViewerExtensions/3.0/"
	 x="0px" y="0px" width="196px" height="196px" viewBox="-23.988 -24.236 196 196" enable-background="new -23.988 -24.236 196 196"
	 xml:space="preserve">
<defs>
</defs>
<path fill-rule="evenodd" clip-rule="evenodd" fill="#140F0B" d="M116.304,134.219c19.119-16.608,35.482-93.252-23.125-116.085
	C135.05,56.248,120.534,118.228,116.304,134.219z"/>
<path fill-rule="evenodd" clip-rule="evenodd" fill="#140F0B" d="M133.763,120.501c14.471-18.812,12.813-97.885-45.805-113.416
	C134.052,39.821,134.583,104.114,133.763,120.501z"/>
<path fill-rule="evenodd" clip-rule="evenodd" fill="#140F0B" d="M145.22,92.558C159.388,71.41,122.536-19.963,58.475,3.962
	C122.478,28.681,143.741,74.145,145.22,92.558z"/>
<ellipse fill-rule="evenodd" clip-rule="evenodd" fill="#140F0B" cx="74.155" cy="86.164" rx="48.717" ry="66.554"/>
<path fill-rule="evenodd" clip-rule="evenodd" fill="#140F0B" d="M33.788,134.219C14.668,117.611-1.695,40.967,56.913,18.134
	C15.042,56.248,29.557,118.228,33.788,134.219z"/>
<path fill-rule="evenodd" clip-rule="evenodd" fill="#140F0B" d="M16.329,120.501C1.859,101.69,3.516,22.617,62.134,7.085
	C16.04,39.821,15.509,104.114,16.329,120.501z"/>
<path fill-rule="evenodd" clip-rule="evenodd" fill="#140F0B" d="M4.873,92.558C-9.295,71.41,6.334,2.5,66.286,2.492
	C8.537,30.061,12.174,76.825,4.873,92.558z"/>
<rect x="55.5" y="93.861" fill-rule="evenodd" clip-rule="evenodd" fill="#E5B683" width="37.307" height="67.204"/>
<path fill-rule="evenodd" clip-rule="evenodd" fill="#140F0B" d="M135.716,54.935c0,33.923-30.027,55.063-61.562,55.063
	c-31.533,0-57.919-27.092-57.919-57.177c0-24.611,12.407-47.761,41.886-49.581C94.626-10.159,135.716,21.011,135.716,54.935z"/>
<path fill-rule="evenodd" clip-rule="evenodd" fill="none" stroke="#C99153" stroke-width="3.8401" stroke-linecap="round" stroke-linejoin="round" stroke-miterlimit="22.9256" d="
	M82.663,83.97c-4.686,4.62-12.333,4.62-17.018,0"/>
<path fill-rule="evenodd" clip-rule="evenodd" fill="#EDA17D" d="M90.653,106.196c-10.379,7.155-22.62,7.155-32.999,0
	C67.559,93.828,80.749,93.827,90.653,106.196z"/>
<path fill-rule="evenodd" clip-rule="evenodd" fill="none" stroke="#44220F" stroke-width="3.8401" stroke-linecap="round" stroke-linejoin="round" stroke-miterlimit="22.9256" d="
	M47.093,54.715c1.686-5.155,7.664-8.509,12.706-7.429"/>
<path fill-rule="evenodd" clip-rule="evenodd" fill="none" stroke="#44220F" stroke-width="3.8401" stroke-linecap="round" stroke-linejoin="round" stroke-miterlimit="22.9256" d="
	M101.216,54.715c-1.686-5.155-7.664-8.509-12.707-7.429"/>
<path fill-rule="evenodd" clip-rule="evenodd" fill="#FAD3A8" d="M15.5,60.857c2.869-1.23,7.405,3.628,10.132,10.851
	s2.612,14.074-0.257,15.304c-2.869,1.23-7.405-3.629-10.132-10.852C12.516,68.938,12.63,62.086,15.5,60.857z"/>
<ellipse transform="matrix(0.3134 -0.9496 0.9496 0.3134 17.5339 172.12)" fill-rule="evenodd" clip-rule="evenodd" fill="#FAD3A8" cx="127.8" cy="73.934" rx="13.771" ry="7.102"/>
<path fill-rule="evenodd" clip-rule="evenodd" fill="#140F0B" d="M38.414,20.738c-11.177,7.073-11.739,19.248-11.739,22.766
	c0,3.518,9.061,0.637,20.238-6.436C58.088,29.995,67.15,21.409,67.15,17.891C67.15,14.374,49.591,13.665,38.414,20.738z"/>
<path fill-rule="evenodd" clip-rule="evenodd" fill="#FFFFFF" d="M86.267,94.583c-0.676,6.089-24.007,5.47-24.224,0H86.267z"/>
<path fill-rule="evenodd" clip-rule="evenodd" fill="#E5B683" d="M55.5,93.861h37.307l-0.246,74.705
	c-12.438,3.595-24.873,3.914-37.308,0L55.5,93.861z"/>
<path fill-rule="evenodd" clip-rule="evenodd" fill="#FAD3A8" d="M76.001,23.828c24.328,0,43.439,13.659,40.389,46.395
	c-0.867,9.32,7.887,4.398,7.887,7.765c0,27.799-42.648,53.922-50.123,53.922c-7.473,0-50.121-26.123-50.121-53.922
	c5.909,8.898,6.813-2.39,6.546-7.596C28.394,27.775,50.5,23.828,76.001,23.828z"/>
<path fill="#C69C6D" d="M80.124,92.508c1.498-1.033,3.736-0.036,2.238,0.998c-4.537,3.132-11.884,3.133-16.421,0
	c-1.499-1.035,0.521-1.846,2.237-0.998C71.583,94.189,76.979,94.124,80.124,92.508z"/>
<ellipse fill-rule="evenodd" clip-rule="evenodd" fill="#333333" cx="56.576" cy="69.194" rx="4.466" ry="7.514"/>
<circle fill-rule="evenodd" clip-rule="evenodd" fill="#FFFFFF" cx="57.227" cy="65.441" r="2.628"/>
<ellipse fill-rule="evenodd" clip-rule="evenodd" fill="#333333" cx="91.733" cy="69.194" rx="4.467" ry="7.514"/>
<circle fill-rule="evenodd" clip-rule="evenodd" fill="#FFFFFF" cx="92.386" cy="65.441" r="2.628"/>
<path fill-rule="evenodd" clip-rule="evenodd" fill="#FAD3A8" d="M15.5,60.857c2.869-1.23,7.405,3.628,10.132,10.851
	s2.612,14.074-0.257,15.304c-2.869,1.23-7.405-3.629-10.132-10.852C12.516,68.938,12.63,62.086,15.5,60.857z"/>
<ellipse transform="matrix(0.3134 -0.9496 0.9496 0.3134 17.5339 172.12)" fill-rule="evenodd" clip-rule="evenodd" fill="#FAD3A8" cx="127.8" cy="73.934" rx="13.771" ry="7.102"/>
<path fill-rule="evenodd" clip-rule="evenodd" fill="#140F0B" d="M31.486,37.346c-10.535,13.48-5.229,29.503-5.229,33.021
	c0,3.518,8.541-4.558,19.077-18.038c10.536-13.48,19.078-27.26,19.078-30.778C64.412,18.034,42.023,23.866,31.486,37.346z"/>
<path fill-rule="evenodd" clip-rule="evenodd" fill="#E5B683" d="M129.956,154.643c-9.654-7.866-27.586-14.034-37.041-17.592
	c-13.545,17.881-24.112,18.066-37.523,0c-9.455,3.558-27.386,9.726-37.039,17.592c15.845,10.972,35.069,17.405,55.801,17.405
	C94.886,172.048,114.11,165.615,129.956,154.643z"/>
<path fill-rule="evenodd" clip-rule="evenodd" fill="#E18C66" d="M93.513,102.24c-10.447,15.502-28.264,15.604-38.716,0
	c8.504-3.552,17.306,0.958,19.671,0.958C76.962,103.198,84.271,98.413,93.513,102.24z"/>
<path fill="#140F0B" d="M102.55,59.735c-3.521-0.21-9.568-3.059-14.887,2.053c-1.814,1.606-3.92-0.572-1.893-2.227
	C93.483,53.248,107.987,60.059,102.55,59.735z"/>
<path fill="#140F0B" d="M45.758,59.735c3.522-0.21,9.569-3.059,14.888,2.053c1.813,1.606,3.918-0.572,1.893-2.227
	C54.826,53.248,40.321,60.059,45.758,59.735z"/>
<path fill-rule="evenodd" clip-rule="evenodd" fill="#140F0B" d="M143.036,72.232c-17.957,7.273-86.8-10.98-93.515-64.573
	C72.509,55.705,128.618,69.556,143.036,72.232z"/>
<path fill-rule="evenodd" clip-rule="evenodd" fill="#140F0B" d="M124.804,64.137c-6.947,5.759-60.527,1.673-74.566-52.232
	C79.978,10.624,118.985,16.383,124.804,64.137z"/>
<path fill-rule="evenodd" clip-rule="evenodd" fill="#140F0B" d="M94.421,81.401C76.593,78.789,38.412,43.273,59.496,4.78
	C51.603,44.375,80.888,74.167,94.421,81.401z"/>
<path fill-rule="evenodd" clip-rule="evenodd" fill="#5CC5C3" d="M129.956,154.643c-9.654-7.866-27.586-14.034-37.041-17.592
	c5.99,2.4,27.584,32.26-18.761,32.26c-46.344,0-24.517-30.328-18.762-32.26c-9.455,3.558-27.386,9.726-37.039,17.592
	c15.845,10.972,35.069,17.405,55.801,17.405C94.886,172.048,114.11,165.615,129.956,154.643z"/>
</svg>
