<?xml version="1.0" encoding="utf-8"?>
<!-- Generator: Adobe Illustrator 15.0.0, SVG Export Plug-In  -->
<!DOCTYPE svg PUBLIC "-//W3C//DTD SVG 1.1//EN" "http://www.w3.org/Graphics/SVG/1.1/DTD/svg11.dtd" [
	<!ENTITY ns_flows "http://ns.adobe.com/Flows/1.0/">
]>
<svg version="1.1"
	 xmlns="http://www.w3.org/2000/svg" xmlns:xlink="http://www.w3.org/1999/xlink" xmlns:a="http://ns.adobe.com/AdobeSVGViewerExtensions/3.0/"
	 x="0px" y="0px" width="196px" height="196px" viewBox="-37.045 -25.283 196 196" enable-background="new -37.045 -25.283 196 196"
	 xml:space="preserve">
<defs>
</defs>
<rect x="42.443" y="92.815" fill-rule="evenodd" clip-rule="evenodd" fill="#E5B683" width="37.307" height="67.203"/>
<ellipse fill-rule="evenodd" clip-rule="evenodd" fill="#44220F" cx="61.095" cy="54.475" rx="57.098" ry="54.475"/>
<path fill-rule="evenodd" clip-rule="evenodd" fill="#FAD3A8" d="M63.009,22.781c25.188,0,44.973,13.659,41.816,46.395
	c-0.898,9.32,8.164,4.397,8.164,7.764c0,27.801-23.232,50.336-51.895,50.336c-28.658,0-51.893-22.535-51.893-50.336
	c6.117,8.9,7.053-2.389,6.777-7.595C13.718,26.728,36.605,22.781,63.009,22.781z"/>
<path fill-rule="evenodd" clip-rule="evenodd" fill="none" stroke="#C99153" stroke-width="3.8401" stroke-linecap="round" stroke-linejoin="round" stroke-miterlimit="22.9256" d="
	M69.605,82.923c-4.686,4.62-12.332,4.62-17.018,0"/>
<path fill-rule="evenodd" clip-rule="evenodd" fill="#E18C66" d="M88.65,93.538c-14.873,22.639-40.234,22.639-55.109,0H88.65z"/>
<path fill-rule="evenodd" clip-rule="evenodd" fill="#EDA17D" d="M77.595,105.149c-10.379,7.155-22.619,7.155-32.998,0
	C54.501,92.78,67.693,92.78,77.595,105.149z"/>
<ellipse fill-rule="evenodd" clip-rule="evenodd" fill="#333333" cx="43.517" cy="63.963" rx="4.467" ry="7.514"/>
<circle fill-rule="evenodd" clip-rule="evenodd" fill="#FFFFFF" cx="44.169" cy="60.21" r="2.629"/>
<ellipse fill-rule="evenodd" clip-rule="evenodd" fill="#333333" cx="78.675" cy="63.963" rx="4.467" ry="7.514"/>
<circle fill-rule="evenodd" clip-rule="evenodd" fill="#FFFFFF" cx="79.328" cy="60.21" r="2.629"/>
<path fill-rule="evenodd" clip-rule="evenodd" fill="none" stroke="#44220F" stroke-width="3.8401" stroke-linecap="round" stroke-linejoin="round" stroke-miterlimit="22.9256" d="
	M34.035,53.668c1.688-5.155,7.664-8.509,12.707-7.429"/>
<path fill-rule="evenodd" clip-rule="evenodd" fill="none" stroke="#44220F" stroke-width="3.8401" stroke-linecap="round" stroke-linejoin="round" stroke-miterlimit="22.9256" d="
	M88.158,53.668c-1.686-5.155-7.664-8.509-12.707-7.429"/>
<path fill-rule="evenodd" clip-rule="evenodd" fill="#44220F" d="M78.57,15.274c20.084,8.055,36.365,19.963,36.365,26.597
	s-16.281,5.482-36.365-2.573S42.205,19.335,42.205,12.701S58.486,7.218,78.57,15.274z"/>
<path fill-rule="evenodd" clip-rule="evenodd" fill="#FAD3A8" d="M2.443,59.81c2.867-1.23,7.404,3.628,10.131,10.851
	s2.611,14.074-0.258,15.304S4.912,82.336,2.185,75.114C-0.543,67.891-0.426,61.039,2.443,59.81z"/>
<ellipse transform="matrix(0.3134 -0.9496 0.9496 0.3134 9.5628 159.0011)" fill-rule="evenodd" clip-rule="evenodd" fill="#FAD3A8" cx="114.742" cy="72.887" rx="13.771" ry="7.102"/>
<path fill-rule="evenodd" clip-rule="evenodd" fill="#44220F" d="M25.355,19.691c-11.176,7.073-11.738,19.248-11.738,22.766
	c0,3.518,9.061,0.637,20.236-6.436c11.178-7.073,20.238-15.658,20.238-19.176C54.091,13.327,36.533,12.618,25.355,19.691z"/>
<path fill-rule="evenodd" clip-rule="evenodd" fill="#FFFFFF" d="M73.208,93.538c-0.676,6.088-24.008,5.469-24.225,0H73.208z"/>
<rect x="42.443" y="92.815" fill-rule="evenodd" clip-rule="evenodd" fill="#E5B683" width="37.307" height="67.203"/>
<ellipse fill-rule="evenodd" clip-rule="evenodd" fill="#140F0B" cx="61.095" cy="54.475" rx="57.098" ry="54.475"/>
<path fill-rule="evenodd" clip-rule="evenodd" fill="#FAD3A8" d="M63.009,24.553c10.547,0,21.477-5.002,28.842-0.175
	c10.223,6.7,14.809,25.771,12.975,44.798c-0.898,9.319,8.164,4.398,8.164,7.765c0,27.8-23.234,50.335-51.895,50.335
	S9.203,104.741,9.203,76.941c6.117,8.898,7.053-2.39,6.777-7.596c-1.316-24.814,4.121-41.676,15.586-46.622
	C39.791,19.175,51.978,24.553,63.009,24.553z"/>
<path fill-rule="evenodd" clip-rule="evenodd" fill="#E18C66" d="M88.355,90.896c-9.914,21.167-31.572,24.292-47.064,6.79
	L88.355,90.896z"/>
<path fill-rule="evenodd" clip-rule="evenodd" fill="#EDA17D" d="M80.343,102.176c-7.98,7.389-18.436,8.896-28.18,4.065
	C59.097,94.458,70.363,92.833,80.343,102.176z"/>
<ellipse fill-rule="evenodd" clip-rule="evenodd" fill="#333333" cx="43.517" cy="63.963" rx="4.467" ry="7.514"/>
<circle fill-rule="evenodd" clip-rule="evenodd" fill="#FFFFFF" cx="44.169" cy="60.21" r="2.629"/>
<ellipse fill-rule="evenodd" clip-rule="evenodd" fill="#333333" cx="78.675" cy="63.963" rx="4.467" ry="7.514"/>
<circle fill-rule="evenodd" clip-rule="evenodd" fill="#FFFFFF" cx="79.328" cy="60.21" r="2.629"/>
<path fill-rule="evenodd" clip-rule="evenodd" fill="#FFFFFF" d="M73.208,93.204c-0.523,4.725-14.688,5.408-21.111,2.924
	l20.266-2.924H73.208z"/>
<path fill-rule="evenodd" clip-rule="evenodd" fill="#676767" d="M116.898,153.596c-9.654-7.865-27.586-14.035-37.041-17.592
	c-1.752,6.623-9.484,11.614-18.762,11.614c-9.275,0-17.01-4.991-18.76-11.614c-9.457,3.557-27.387,9.727-37.041,17.592
	c15.844,10.973,35.07,17.406,55.801,17.406C81.828,171.002,101.052,164.568,116.898,153.596z"/>
<path fill="#140F0B" d="M36.763,42.908c-2.125,1.36-3.84-0.721-1.715-2.077c5.316-3.392,13.188-2.119,17.064,2.741
	c1.576,1.975-1.424,4.363-2.994,2.394C46.447,42.618,40.443,40.566,36.763,42.908z"/>
<path fill="#140F0B" d="M85.429,49.845c2.127,1.36,3.84-0.72,1.713-2.077c-5.314-3.392-13.186-2.119-17.063,2.741
	c-1.576,1.975,1.424,4.363,2.994,2.394C75.744,49.554,81.75,47.502,85.429,49.845z"/>
<path fill="#140F0B" d="M75.519,49.845c0.793,1.36,1.43-0.72,0.639-2.077c-1.98-3.392-4.914-2.119-6.357,2.741
	c-0.588,1.975,0.531,4.363,1.115,2.394C71.912,49.554,74.148,47.502,75.519,49.845z"/>
<path fill="#C69C6D" d="M67.083,83.492c1.498-1.032,3.736-0.036,2.238,0.998c-4.537,3.133-11.885,3.133-16.422,0
	c-1.5-1.034,0.521-1.845,2.236-0.998C58.542,85.173,63.937,85.107,67.083,83.492z"/>
<ellipse transform="matrix(0.3135 -0.9496 0.9496 0.3135 9.1742 158.4645)" fill-rule="evenodd" clip-rule="evenodd" fill="#FAD3A8" cx="114.184" cy="72.887" rx="13.771" ry="7.101"/>
<ellipse transform="matrix(-0.3135 -0.9496 0.9496 -0.3135 -58.6946 103.3421)" fill-rule="evenodd" clip-rule="evenodd" fill="#FAD3A8" cx="8.008" cy="72.888" rx="13.772" ry="7.101"/>
</svg>
